<svg width="520" height="800" viewBox="0 0 520 800" fill="none" xmlns="http://www.w3.org/2000/svg">
<g clip-path="url(#clip0_496_5227)">
<path d="M440 617.231L400 639.922V440.736C330.991 458.498 280 521.142 280 595.696V707.994L260 719.339L240 707.994V595.696C240 521.142 189.009 458.498 120 440.736V639.922L80 617.231V182.162L120 159.471V399.696C181.765 412.234 233.195 453.236 260 508.413C286.805 453.236 338.235 412.234 400 399.696V159.471L440 182.162V617.231Z" fill="#070727"/>
<path d="M360 662.612V595.696C337.909 595.696 320 613.604 320 635.696V685.303L360 662.612Z" fill="#070727"/>
<path d="M200 635.696V685.303L160 662.612V595.696C182.091 595.696 200 613.604 200 635.696Z" fill="#070727"/>
<path d="M200 116.696V289.696L160 312.387V139.387L200 116.696Z" fill="#070727"/>
<path d="M280 91.3988V264.041L260 252.696L240 264.041V91.3988L260 80.0531L280 91.3988Z" fill="#070727"/>
<path d="M320 116.696V289.696L360 312.387V139.387L320 116.696Z" fill="#070727"/>
<path fill-rule="evenodd" clip-rule="evenodd" d="M520 623.267C520 649.449 505.788 673.567 482.884 686.252L294.884 790.375C273.181 802.395 246.819 802.395 225.116 790.375L37.116 686.252C14.2125 673.567 0 649.449 0 623.267V176.124C0 149.942 14.2125 125.824 37.116 113.139L225.116 9.016C246.819 -3.00403 273.181 -3.00403 294.884 9.016L482.884 113.139C505.788 125.824 520 149.942 520 176.124V623.267ZM459.736 147.37C472.261 154.475 480 167.763 480 182.162V617.229C480 631.629 472.261 644.917 459.736 652.021L279.736 754.13C267.495 761.075 252.505 761.075 240.264 754.13L60.2635 652.021C47.7392 644.917 40 631.629 40 617.229V182.162C40 167.763 47.7392 154.475 60.2635 147.37L240.264 45.2609C252.505 38.3167 267.495 38.3167 279.736 45.2609L459.736 147.37Z" fill="#070727"/>
</g>
<defs>
<clipPath id="clip0_496_5227">
<rect width="520" height="799.39" fill="white"/>
</clipPath>
</defs>
</svg>
