<svg width="1080" height="1080" viewBox="0 0 1080 1080" fill="none" xmlns="http://www.w3.org/2000/svg">
<rect x="122.5" y="122.5" width="835" height="835" stroke="#B0D9FF" stroke-width="45"/>
<path d="M254.101 770.532C265.661 770.532 276.459 773.798 285.624 779.455C281.879 778.031 277.818 777.248 273.574 777.248C254.845 777.248 239.663 792.431 239.663 811.16C239.664 819.504 242.679 827.143 247.677 833.05C253.584 838.048 261.224 841.063 269.567 841.063C288.296 841.063 303.479 825.881 303.479 807.152C303.479 802.91 302.698 798.85 301.275 795.107C306.93 804.271 310.194 815.067 310.194 826.626C310.194 859.818 283.286 886.726 250.094 886.727C235.282 886.726 221.72 881.368 211.243 872.483L211.102 872.625C210.605 872.117 210.118 871.6 209.64 871.075C209.119 870.601 208.606 870.117 208.103 869.625L208.242 869.485C199.358 859.009 194 845.446 194 830.634C194 797.441 220.908 770.532 254.101 770.532ZM825.899 770.532C859.092 770.532 886 797.441 886 830.634C886 845.446 880.642 859.009 871.758 869.485L871.897 869.625C871.394 870.117 870.881 870.601 870.36 871.075C869.882 871.6 869.395 872.117 868.898 872.625L868.757 872.483C858.28 881.368 844.718 886.726 829.906 886.727C796.714 886.726 769.806 859.818 769.806 826.626C769.806 815.067 773.07 804.271 778.725 795.107C777.302 798.85 776.521 802.91 776.521 807.152C776.521 825.881 791.704 841.063 810.433 841.063C818.776 841.063 826.416 838.048 832.323 833.05C837.321 827.143 840.336 819.504 840.337 811.16C840.337 792.431 825.155 777.248 806.426 777.248C802.182 777.248 798.121 778.031 794.376 779.455C803.541 773.798 814.339 770.532 825.899 770.532ZM359.887 851.136C383.309 851.136 403.356 865.585 411.604 886.055H308.169C316.416 865.585 336.464 851.136 359.887 851.136ZM194.672 623.134C235.142 623.134 319.786 647.523 335.839 744.888C433.204 760.94 457.593 845.584 457.593 886.055H428.718C429.769 794.573 353.51 770.241 312.804 769.245L311.517 770.532C311.517 770.1 311.512 769.662 311.507 769.221C311.065 769.215 310.627 769.211 310.194 769.211L311.482 767.923C310.486 727.217 286.154 650.958 194.672 652.01V623.134ZM211.796 542.216C329.623 555.75 373.032 652.114 380.427 700.3C428.613 707.695 524.976 751.104 538.511 868.932V886.055H497.548C497.436 839.511 467.304 744.269 347.963 733.776L347.106 734.606C347.082 734.303 347.056 733.999 347.03 733.696C346.728 733.671 346.425 733.644 346.121 733.62L346.95 732.765C336.458 613.423 241.216 583.29 194.672 583.179V542.216H211.796ZM885.328 583.179C838.784 583.29 743.542 613.423 733.05 732.765L733.879 733.62C733.575 733.644 733.272 733.671 732.97 733.696C732.944 733.999 732.918 734.303 732.894 734.606L732.037 733.776C612.696 744.269 582.564 839.511 582.452 886.055H541.489V868.932C555.024 751.104 651.387 707.695 699.573 700.3C706.968 652.114 750.377 555.75 868.204 542.216H885.328V583.179ZM885.328 652.01C793.846 650.958 769.514 727.217 768.518 767.923L769.806 769.211C769.373 769.211 768.935 769.215 768.493 769.221C768.488 769.662 768.483 770.1 768.483 770.532L767.196 769.245C726.49 770.241 650.231 794.573 651.282 886.055H622.407C622.407 845.584 646.796 760.94 744.161 744.888C760.214 647.523 844.858 623.134 885.328 623.134V652.01ZM720.113 851.136C743.536 851.136 763.584 865.585 771.831 886.055H668.396C676.644 865.585 696.691 851.136 720.113 851.136ZM194.672 669.122C215.142 677.37 229.591 697.417 229.591 720.84C229.59 744.262 215.142 764.309 194.672 772.557V669.122ZM885.328 772.557C864.858 764.309 850.41 744.262 850.409 720.84C850.409 697.417 864.858 677.37 885.328 669.122V772.557ZM540.462 348.755L592.245 400.538L554.95 472.439C563.358 474.342 571.192 477.762 578.146 482.396L602.597 405.247L674.807 406.254V477.456L597.658 501.906C602.292 508.861 605.713 516.694 607.615 525.103L679.515 487.809L731.971 540.265H732.222L732.096 540.39L732.222 540.516H731.971L679.515 592.972L607.615 555.678C605.713 564.086 602.292 571.919 597.658 578.874L674.807 603.324V674.526L602.597 675.534L578.146 598.385C571.192 603.018 563.358 606.438 554.95 608.341L592.245 680.242L540.462 732.025V732.949L540 732.487L539.538 732.949V732.025L487.755 680.242L525.05 608.341C516.642 606.438 508.808 603.018 501.854 598.385L477.403 675.534L405.193 674.526V603.324L482.342 578.874C477.708 571.919 474.287 564.086 472.385 555.678L400.485 592.972L348.029 540.516H347.778L347.903 540.39L347.778 540.265H348.029L400.485 487.809L472.385 525.103C474.287 516.694 477.708 508.861 482.342 501.906L405.193 477.456V406.254L477.403 405.247L501.854 482.396C508.808 477.762 516.642 474.342 525.05 472.439L487.755 400.538L539.538 348.755V347.831L540 348.293L540.462 347.831V348.755ZM538.511 211.85C524.976 329.677 428.613 373.086 380.427 380.48C373.032 428.666 329.623 525.03 211.796 538.564H194.672V497.602C241.216 497.49 336.458 467.357 346.95 348.016L346.121 347.16C346.425 347.136 346.728 347.109 347.03 347.084C347.056 346.781 347.082 346.478 347.106 346.174L347.963 347.004C467.304 336.511 497.436 241.27 497.548 194.726H538.511V211.85ZM582.452 194.726C582.564 241.27 612.696 336.511 732.037 347.004L732.894 346.174C732.918 346.478 732.944 346.781 732.97 347.084C733.272 347.109 733.575 347.136 733.879 347.16L733.05 348.016C743.542 467.357 838.784 497.49 885.328 497.602V538.564H868.204C750.377 525.03 706.968 428.666 699.573 380.48C651.387 373.086 555.024 329.677 541.489 211.85V194.726H582.452ZM457.593 194.726C457.593 235.196 433.204 319.841 335.839 335.893C319.786 433.257 235.142 457.646 194.672 457.646V428.771C286.154 429.822 310.486 353.564 311.482 312.857L310.194 311.569C310.627 311.569 311.065 311.565 311.507 311.56C311.512 311.118 311.517 310.68 311.517 310.248L312.804 311.535C353.51 310.539 429.769 286.207 428.718 194.726H457.593ZM651.282 194.726C650.231 286.207 726.49 310.539 767.196 311.535L768.483 310.248C768.483 310.68 768.488 311.118 768.493 311.56C768.935 311.565 769.373 311.569 769.806 311.569L768.518 312.857C769.514 353.564 793.846 429.822 885.328 428.771V457.646C844.858 457.646 760.214 433.257 744.161 335.893C646.796 319.841 622.407 235.196 622.407 194.726H651.282ZM194.672 308.223C215.141 316.47 229.59 336.518 229.591 359.939C229.591 383.362 215.142 403.41 194.672 411.657V308.223ZM885.328 411.657C864.858 403.41 850.409 383.362 850.409 359.939C850.41 336.518 864.859 316.47 885.328 308.223V411.657ZM250.094 194.054C283.286 194.054 310.194 220.962 310.194 254.154C310.194 265.713 306.93 276.509 301.275 285.673C302.698 281.93 303.479 277.87 303.479 273.628C303.479 254.9 288.296 239.717 269.567 239.717C261.224 239.717 253.584 242.732 247.677 247.73C242.678 253.638 239.663 261.277 239.663 269.621C239.663 288.35 254.846 303.533 273.574 303.533C277.818 303.533 281.878 302.751 285.622 301.327C276.458 306.983 265.66 310.248 254.101 310.248C220.908 310.248 194 283.339 194 250.146C194 235.334 199.358 221.771 208.242 211.295L208.103 211.155C208.606 210.663 209.119 210.179 209.64 209.705C210.118 209.18 210.605 208.663 211.102 208.155L211.242 208.296C221.719 199.412 235.282 194.054 250.094 194.054ZM829.906 194.054C844.718 194.054 858.281 199.412 868.758 208.296L868.898 208.155C869.395 208.663 869.882 209.18 870.36 209.705C870.881 210.179 871.394 210.663 871.897 211.155L871.758 211.295C880.642 221.771 886 235.334 886 250.146C886 283.339 859.092 310.248 825.899 310.248C814.34 310.248 803.542 306.983 794.378 301.327C798.122 302.751 802.182 303.533 806.426 303.533C825.154 303.533 840.337 288.35 840.337 269.621C840.337 261.277 837.322 253.638 832.323 247.73C826.416 242.732 818.776 239.717 810.433 239.717C791.704 239.717 776.521 254.9 776.521 273.628C776.521 277.87 777.302 281.93 778.725 285.673C773.07 276.509 769.806 265.713 769.806 254.154C769.806 220.962 796.714 194.054 829.906 194.054ZM411.604 194.726C403.356 215.196 383.309 229.644 359.887 229.645C336.464 229.644 316.416 215.196 308.169 194.726H411.604ZM771.831 194.726C763.584 215.196 743.536 229.644 720.113 229.645C696.691 229.644 676.644 215.196 668.396 194.726H771.831Z" fill="#B0D9FF"/>
</svg>
