<?xml version="1.0" standalone="no"?>
<!DOCTYPE svg PUBLIC "-//W3C//DTD SVG 20010904//EN"
 "http://www.w3.org/TR/2001/REC-SVG-20010904/DTD/svg10.dtd">
<svg version="1.0" xmlns="http://www.w3.org/2000/svg"
 width="700.000000pt" height="700.000000pt" viewBox="0 0 700.000000 700.000000"
 preserveAspectRatio="xMidYMid meet">
<metadata>
Created by potrace 1.14, written by Peter Selinger 2001-2017
</metadata>
<g transform="translate(0.000000,700.000000) scale(0.100000,-0.100000)"
fill="#000000" stroke="none">
<path d="M1747 6857 l-108 -30 6 -29 c19 -84 86 -269 136 -374 148 -310 345
-492 614 -565 69 -19 107 -23 275 -23 183 -1 228 2 390 24 36 5 90 11 120 15
30 3 71 8 90 10 133 17 344 22 450 11 204 -22 368 -84 581 -218 l86 -55 79 29
c43 16 85 35 92 42 30 29 18 216 -21 323 -62 178 -242 350 -480 463 -155 73
-140 75 -177 -27 -51 -141 -52 -134 27 -165 149 -60 314 -185 370 -281 12 -20
20 -37 17 -37 -4 0 -36 14 -73 31 -131 61 -213 94 -321 131 -84 28 -211 61
-280 73 -19 3 -42 8 -50 10 -8 2 -42 7 -75 10 -33 4 -67 8 -75 10 -8 2 -44 7
-80 10 -103 10 -292 34 -323 40 -175 35 -275 126 -360 326 -21 47 -37 91 -37
97 0 6 -4 22 -9 35 l-10 25 -105 -32 c-58 -18 -108 -35 -112 -38 -19 -19 101
-295 166 -383 71 -96 182 -186 266 -217 19 -7 34 -15 34 -19 0 -14 -305 -2
-385 15 -227 49 -370 193 -510 518 -8 21 -32 88 -52 150 -19 62 -38 116 -42
119 -3 3 -55 -8 -114 -24z"/>
<path d="M3128 6827 c-6 -17 -2 -133 6 -192 7 -52 43 -174 55 -187 4 -4 31
-10 61 -13 97 -9 154 -15 199 -21 l44 -5 -30 38 c-61 79 -89 159 -99 288 -4
44 -8 81 -9 83 -2 2 -29 5 -62 8 -32 2 -81 6 -110 8 -34 3 -53 1 -55 -7z"/>
<path d="M4800 6612 c-13 -15 -45 -52 -72 -81 -26 -30 -48 -58 -48 -62 0 -4
16 -27 37 -51 48 -57 91 -154 99 -224 l7 -57 -54 39 c-65 47 -106 74 -115 74
-3 0 6 -20 19 -45 23 -41 57 -137 61 -175 1 -8 5 -35 9 -60 3 -25 8 -69 11
-99 3 -29 6 -54 8 -56 6 -4 158 -25 188 -25 25 0 32 6 45 36 47 112 70 306 51
424 -17 109 -74 232 -152 327 -51 62 -66 68 -94 35z"/>
<path d="M3618 5645 c-2 -2 -44 -5 -93 -6 -162 -4 -231 -40 -275 -141 l-21
-50 23 -26 c163 -184 444 -320 713 -347 118 -12 131 -13 184 -14 51 -1 53 -2
47 -25 -11 -44 -17 -151 -20 -356 -3 -220 -12 -269 -70 -395 -96 -209 -301
-382 -557 -469 -58 -20 -206 -55 -261 -62 -24 -3 -54 -7 -68 -10 -34 -6 -172
-13 -375 -19 -93 -3 -188 -8 -210 -10 -22 -2 -65 -7 -95 -10 -276 -30 -601
-118 -819 -221 -342 -162 -570 -387 -675 -667 l-26 -67 56 -79 56 -79 101 -1
c55 -1 103 -4 105 -6 3 -3 5 -202 5 -444 -1 -422 -2 -440 -21 -468 -11 -15
-68 -104 -127 -198 l-108 -170 2 -65 c1 -36 4 -85 6 -110 2 -25 6 -97 10 -160
3 -63 8 -137 11 -164 2 -27 6 -92 9 -145 3 -53 7 -123 10 -156 2 -33 7 -116
11 -185 6 -111 10 -171 13 -192 1 -3 56 -5 123 -5 l122 2 1 110 c3 172 16 756
19 799 1 22 7 41 14 44 6 2 60 37 119 79 446 312 760 725 867 1140 31 118 40
200 40 343 1 192 -20 319 -79 490 -14 41 -29 87 -34 101 -9 26 -7 28 97 72 76
32 109 42 114 34 18 -27 88 -260 108 -357 24 -116 37 -418 21 -500 -5 -25 -11
-65 -14 -90 -13 -100 -70 -281 -133 -416 -19 -41 -34 -77 -34 -80 0 -5 251 3
340 11 25 2 95 7 155 10 61 3 117 8 125 10 8 2 49 7 90 10 41 3 104 11 140 16
36 6 88 13 115 16 51 5 68 17 60 43 -2 8 -7 56 -10 105 -3 50 -7 104 -9 120
-3 17 -7 72 -10 122 -3 51 -8 108 -11 125 -5 39 -17 207 -19 262 -1 44 -10 41
120 51 49 4 93 7 98 8 10 2 12 -5 21 -118 4 -49 8 -103 10 -120 2 -16 6 -70
10 -120 4 -49 8 -103 10 -120 2 -16 6 -73 10 -125 3 -52 8 -106 10 -120 2 -14
6 -61 10 -105 7 -105 15 -200 20 -250 2 -22 7 -80 10 -130 4 -49 8 -101 10
-115 3 -14 7 -63 10 -110 3 -47 8 -107 11 -134 2 -27 7 -78 9 -115 3 -36 7
-92 10 -124 3 -31 7 -84 10 -117 3 -33 7 -86 10 -118 3 -31 7 -84 10 -117 2
-33 7 -91 10 -130 3 -38 7 -88 10 -110 6 -57 18 -214 19 -251 l1 -31 123 -1
122 0 1 37 c0 20 2 86 4 146 3 109 10 375 21 845 3 135 7 299 9 365 2 66 4
172 4 235 l1 115 53 29 c314 172 557 552 718 1121 22 77 42 151 44 165 5 30
22 115 30 150 11 52 31 191 40 275 3 28 8 70 11 95 3 25 7 59 9 75 11 89 23
249 30 415 4 74 8 163 10 197 2 39 -1 66 -8 71 -7 5 -73 28 -147 51 -74 23
-144 46 -155 51 -12 5 190 9 505 10 l525 0 48 113 c26 61 47 115 47 120 0 4
-14 7 -31 7 -39 0 -150 28 -167 43 -9 7 -11 22 -7 46 4 20 8 43 10 51 1 12 24
16 116 18 99 2 110 4 89 16 -95 49 -297 155 -355 186 -38 20 -124 66 -190 100
-66 35 -147 77 -180 95 -33 17 -123 65 -200 105 -77 40 -165 86 -195 102 -37
21 -63 28 -81 24 -45 -9 -215 -92 -288 -141 -38 -25 -71 -45 -74 -45 -3 0 -32
17 -64 38 -113 75 -287 144 -448 177 -70 15 -278 29 -287 20z"/>
<path d="M4962 2267 c-85 -143 -176 -272 -267 -379 -36 -42 -65 -79 -65 -81 0
-3 23 -14 50 -26 28 -12 89 -39 136 -61 47 -22 87 -40 89 -40 3 0 42 -17 87
-39 46 -21 131 -59 190 -86 105 -46 107 -47 97 -73 -10 -25 -58 -138 -85 -197
-53 -119 -194 -448 -194 -454 0 -13 201 -104 210 -94 4 4 112 214 239 465 218
430 230 457 213 470 -11 7 -46 36 -78 64 -32 28 -160 138 -284 244 -124 106
-230 198 -237 204 -7 6 -15 53 -19 106 -4 52 -7 96 -8 97 -1 1 -34 -53 -74
-120z"/>
<path d="M2746 1662 c-2 -1 -91 -5 -197 -8 l-194 -6 -20 -26 c-65 -86 -194
-231 -287 -323 l-107 -107 9 -63 c5 -35 11 -91 14 -124 4 -33 8 -76 11 -95 6
-43 17 -136 20 -170 1 -14 5 -45 8 -70 3 -25 9 -76 13 -115 3 -38 8 -78 9 -87
2 -9 7 -48 10 -85 4 -37 9 -75 10 -83 2 -8 6 -50 10 -92 4 -43 10 -79 14 -79
16 -4 217 -6 227 -2 8 3 11 139 11 465 l0 460 49 46 c213 194 394 397 488 543
l17 27 -56 -2 c-31 0 -58 -2 -59 -4z"/>
</g>
</svg>
