<svg width="400" height="100" viewBox="0 0 400 100" fill="none" xmlns="http://www.w3.org/2000/svg">
<rect fill="#111" x="0" width="400" height="100" rx="15" />
<g transform="translate(50 15) scale(0.55)">
<path d="M137.5 98.7C130.9 98.7 125.2 97.2 120.6 94.2C116.1 91.3 112.7 86.9 111 81.8L120.7 76.1C123.5 83.8 129.2 87.7 137.8 87.7C142.1 87.7 145.2 86.9 147.3 85.2C149.4 83.7 150.6 81.2 150.6 78.6C150.7 76 149.4 73.5 147.2 72.2C144.9 70.7 140.8 69.1 135 67.3C132.3 66.5 129.6 65.6 127 64.5C124.7 63.5 122.6 62.3 120.5 61C118.4 59.5 116.6 57.5 115.5 55.2C114.3 52.7 113.8 49.9 113.8 47.1C113.8 41 116 36.2 120.3 32.6C124.7 29 130.2 27.1 135.9 27.2C141 27.1 146 28.5 150.4 31.2C154.6 33.9 157.9 37.8 159.9 42.3L150.4 47.8C147.5 41.4 142.7 38.2 135.9 38.2C132.6 38.2 130 39 128 40.6C126.1 42.1 125 44.4 125 46.8C124.9 49.2 126 51.5 128 52.9C130 54.3 133.7 55.9 138.9 57.5C141.5 58.4 143.4 59 144.6 59.5C145.8 59.9 147.6 60.5 149.7 61.5C151.5 62.2 153.2 63.1 154.7 64.3C156 65.4 157.2 66.5 158.3 67.8C159.6 69.1 160.5 70.7 161.1 72.5C161.6 74.5 161.9 76.5 161.9 78.5C161.9 84.7 159.6 89.7 155.1 93.4C150.6 97.1 144.7 98.8 137.5 98.7Z" fill="white"/>
<path d="M194.5 58.5H182.3V82.1C182.3 84.1 182.8 85.6 183.7 86.5C184.8 87.4 186.3 88 187.7 88C189.5 88.1 191.8 88 194.5 87.9V97.4C186.4 98.4 180.5 97.7 177 95.3C173.5 92.9 171.7 88.5 171.7 82V58.4H162.6V48.2H171.7V37.6L182.3 34.5V48.3H194.5V58.5Z" fill="white"/>
<path d="M238.6 48.3H249.2V97.5H238.6V90.4C234.6 96 228.9 98.8 221.4 98.8C214.8 98.9 208.5 96.2 204.1 91.3C199.4 86.4 196.8 79.7 196.9 72.9C196.9 65.6 199.3 59.5 204.1 54.5C208.5 49.7 214.8 46.9 221.4 47C228.9 47 234.6 49.7 238.6 55.2V48.3ZM211.9 84.2C218.1 90.1 227.9 90.1 234.1 84.2C237.1 81.2 238.6 77.1 238.5 72.9C238.6 68.7 237 64.6 234.1 61.7C227.9 55.7 218 55.7 211.9 61.7C208.9 64.7 207.3 68.7 207.5 72.9C207.4 77.1 209 81.2 211.9 84.2Z" fill="white"/>
<path d="M282.4 98.7C275 98.7 268.8 96.2 263.8 91.2C258.9 86.3 256.3 79.7 256.4 72.8C256.4 65.5 258.9 59.3 263.8 54.4C268.7 49.5 274.9 47 282.4 46.9C287 46.8 291.5 48 295.5 50.3C299.3 52.4 302.4 55.7 304.4 59.5L295.3 64.8C294.2 62.5 292.4 60.5 290.2 59.3C287.9 57.9 285.2 57.2 282.4 57.2C278.3 57.1 274.4 58.7 271.5 61.6C265.7 67.8 265.7 77.4 271.5 83.6C276.5 88.5 284.1 89.4 290.2 86C292.5 84.7 294.3 82.8 295.5 80.5L304.6 85.7C302.5 89.6 299.4 92.9 295.5 95C291.5 97.6 287 98.8 282.4 98.7Z" fill="white"/>
<path d="M353.2 97.5H340.5L320.3 74.8V97.5H309.7V28.6H320.3V70L339.4 48.3H352.4L330.8 72.4L353.2 97.5Z" fill="white"/>
<path d="M399.2 61.8C405.3 64.8 409 71.1 408.9 77.8C409 83.1 406.8 88.3 402.9 91.9C398.9 95.6 393.7 97.6 388.2 97.5H358.7V28.6H386C391.3 28.5 396.4 30.5 400.2 34.1C404.1 37.5 406.2 42.5 406.1 47.7C406.1 53.6 403.8 58.3 399.2 61.8ZM386 39.2H370V57.3H386C388.4 57.4 390.6 56.4 392.3 54.7C394 53 394.9 50.6 394.9 48.2C395 45.8 394 43.5 392.3 41.8C390.7 40.1 388.4 39.2 386 39.2ZM388.1 86.8C390.6 86.9 393 85.9 394.7 84C396.5 82.2 397.5 79.7 397.5 77.1C397.6 74.6 396.6 72.1 394.7 70.3C393 68.4 390.6 67.4 388.1 67.4H369.9V86.7H388.1V86.8Z" fill="white"/>
<path d="M415.5 97.5V25.7H426.1V97.5H415.5Z" fill="white"/>
<path d="M446.1 38.9C444.9 40.2 443.2 40.9 441.4 40.9C437.7 40.9 434.6 37.9 434.6 34.2V34.1C434.7 30.4 437.7 27.4 441.4 27.3C445.1 27.4 448.1 30.4 448.2 34.1C448.2 35.9 447.4 37.6 446.1 38.9ZM436 97.5V48.3H446.6V97.5H436Z" fill="white"/>
<path d="M484 58.5H471.8V82.1C471.8 84.1 472.3 85.6 473.2 86.5C474.3 87.4 475.8 88 477.2 88C479 88.1 481.3 88 484 87.9V97.4C475.9 98.4 470 97.7 466.5 95.3C463 92.9 461.2 88.5 461.2 82V58.4H452.1V48.2H461.2V37.6L471.8 34.5V48.3H484V58.5Z" fill="white"/>
<path d="M503.4 87.4H527.3V97.4H488.9V90.3L511.9 58.2H489.9V48.2H526.3V55.3L503.4 87.4Z" fill="white"/>
<path d="M0.700012 75H38.1L16.3 127.8L87.8 52.6H50.2L71.8 0.199997L0.700012 75Z" fill="#1389FD"/>
</g>
</svg>
