<svg width="400" height="100" viewBox="0 0 400 100" fill="none" xmlns="http://www.w3.org/2000/svg">
<rect fill="#111" x="0" width="400" height="100" rx="15" />
<g transform="translate(30 20)">
<path d="M90.8236 48.7106V11.3546H97.6546L115.212 37.6646V11.3546H122.043V48.7106H115.212L97.6546 22.4546V48.7106H90.8236ZM139.051 49.3506C135.742 49.3506 133.181 48.3196 131.366 46.2556C129.587 44.1926 128.698 41.1686 128.698 37.1836V22.2416H135.475V36.5436C135.475 38.8206 135.938 40.5636 136.863 41.7736C137.788 42.9836 139.247 43.5876 141.239 43.5876C143.125 43.5876 144.672 42.9116 145.882 41.5596C147.127 40.2076 147.75 38.3226 147.75 35.9026V22.2416H154.581V48.7116H148.55L148.016 44.2286C147.198 45.7936 146.006 47.0386 144.441 47.9636C142.911 48.8886 141.114 49.3516 139.051 49.3516V49.3506ZM159.085 48.7106L168.69 35.4756L159.085 22.2416H166.396L173.12 31.6336L179.791 22.2416H187.155L177.496 35.4756L187.155 48.7106H179.791L173.12 39.3186L166.396 48.7106H159.085ZM203.301 48.7106C200.526 48.7106 198.302 48.0346 196.63 46.6826C194.958 45.3306 194.122 42.9296 194.122 39.4786V27.9506H189.586V22.2406H194.122L194.922 15.1426H200.953V22.2406H208.104V27.9506H200.953V39.5306C200.953 40.8116 201.22 41.7006 201.753 42.1996C202.323 42.6616 203.283 42.8926 204.635 42.8926H207.944V48.7096H203.301V48.7106ZM214.129 48.7106V11.3546H220.96V43.3746H237.503V48.7106H214.129ZM252.488 49.3506C250.211 49.3506 248.343 48.9956 246.884 48.2836C245.425 47.5366 244.34 46.5586 243.629 45.3486C242.917 44.1386 242.561 42.8046 242.561 41.3466C242.561 38.8916 243.522 36.8996 245.443 35.3696C247.364 33.8396 250.246 33.0746 254.089 33.0746H260.813V32.4346C260.813 30.6196 260.297 29.2856 259.265 28.4316C258.233 27.5776 256.952 27.1516 255.423 27.1516C254.035 27.1516 252.826 27.4886 251.794 28.1646C250.762 28.8046 250.122 29.7656 249.873 31.0466H243.202C243.38 29.1256 244.02 27.4536 245.123 26.0306C246.261 24.6076 247.72 23.5216 249.499 22.7746C251.278 21.9926 253.27 21.6006 255.476 21.6006C259.247 21.6006 262.218 22.5436 264.388 24.4296C266.558 26.3146 267.644 28.9836 267.644 32.4346V48.7106H261.827L261.186 44.4416C260.404 45.8646 259.301 47.0386 257.878 47.9636C256.49 48.8886 254.693 49.3516 252.488 49.3516V49.3506ZM254.035 44.0146C255.992 44.0146 257.504 43.3745 258.571 42.0936C259.674 40.8136 260.368 39.2296 260.653 37.3436H254.836C253.021 37.3436 251.723 37.6816 250.94 38.3576C250.157 38.9976 249.766 39.7986 249.766 40.7596C249.766 41.7916 250.157 42.5916 250.94 43.1606C251.723 43.7306 252.754 44.0146 254.035 44.0146ZM289.852 49.3506C287.859 49.3506 286.116 48.9776 284.622 48.2306C283.16 47.5119 281.91 46.427 280.993 45.0816L280.246 48.7116H274.162V10.2866H280.993V26.0306C281.847 24.8566 282.968 23.8246 284.355 22.9346C285.778 22.0456 287.61 21.6006 289.852 21.6006C292.342 21.6006 294.566 22.2056 296.523 23.4156C298.479 24.6256 300.027 26.2796 301.165 28.3786C302.304 30.4776 302.873 32.8616 302.873 35.5286C302.873 38.1986 302.304 40.5816 301.165 42.6806C300.027 44.7436 298.479 46.3806 296.523 47.5906C294.566 48.7646 292.342 49.3506 289.852 49.3506ZM288.411 43.3746C290.581 43.3746 292.378 42.6446 293.801 41.1866C295.224 39.7276 295.936 37.8416 295.936 35.5296C295.936 33.2166 295.224 31.3136 293.801 29.8196C292.378 28.3246 290.581 27.5776 288.411 27.5776C286.205 27.5776 284.391 28.3246 282.968 29.8196C281.58 31.2776 280.886 33.1636 280.886 35.4756C280.886 37.7886 281.58 39.6916 282.968 41.1856C284.391 42.6456 286.205 43.3746 288.411 43.3746ZM319.915 49.3506C317.567 49.3506 315.504 48.9776 313.725 48.2306C311.946 47.4476 310.523 46.3806 309.456 45.0286C308.388 43.6766 307.748 42.1116 307.534 40.3326H314.419C314.632 41.3646 315.201 42.2536 316.126 43.0006C317.087 43.7126 318.314 44.0676 319.809 44.0676C321.303 44.0676 322.388 43.7656 323.064 43.1606C323.775 42.5556 324.131 41.8626 324.131 41.0796C324.131 39.9406 323.633 39.1756 322.637 38.7846C321.641 38.3576 320.253 37.9486 318.474 37.5576C317.306 37.3009 316.149 36.9983 315.006 36.6506C313.832 36.2946 312.746 35.8496 311.75 35.3156C310.79 34.7466 310.007 34.0356 309.402 33.1816C308.797 32.2916 308.495 31.2066 308.495 29.9256C308.495 27.5776 309.42 25.6036 311.27 24.0026C313.156 22.4016 315.788 21.6006 319.168 21.6006C322.299 21.6006 324.789 22.3306 326.639 23.7886C328.525 25.2476 329.646 27.2586 330.002 29.8186H323.544C323.153 27.8626 321.676 26.8846 319.115 26.8846C317.834 26.8846 316.838 27.1336 316.126 27.6316C315.45 28.1296 315.112 28.7516 315.112 29.4986C315.112 30.2816 315.628 30.9046 316.66 31.3666C317.692 31.8296 319.061 32.2566 320.769 32.6476C322.619 33.0746 324.309 33.5546 325.839 34.0886C327.404 34.5866 328.65 35.3516 329.575 36.3836C330.5 37.3796 330.962 38.8206 330.962 40.7056C330.998 42.3426 330.571 43.8186 329.681 45.1356C328.792 46.4516 327.511 47.4836 325.839 48.2306C324.167 48.9776 322.192 49.3506 319.915 49.3506ZM42.0296 49.6906H69.8786C70.7636 49.6906 71.6326 49.4616 72.3986 49.0256C73.1623 48.5916 73.7983 47.9642 74.2426 47.2066C74.6839 46.4529 74.9163 45.5952 74.916 44.7218C74.9156 43.8484 74.6825 42.9909 74.2406 42.2376L55.5376 10.2936C55.0931 9.53625 54.4572 8.90926 53.6936 8.47555C52.9259 8.03841 52.0576 7.80855 51.1741 7.80855C50.2907 7.80855 49.4224 8.03841 48.6546 8.47555C47.8914 8.90936 47.2558 9.53635 46.8116 10.2936L42.0286 18.4676L32.6786 2.48455C32.2338 1.72716 31.5975 1.10016 30.8336 0.666553C30.0658 0.229699 29.1976 0 28.3141 0C27.4307 0 26.5625 0.229699 25.7946 0.666553C25.0308 1.1002 24.3945 1.72719 23.9496 2.48455L0.675641 42.2376C0.233573 42.991 0.000351937 43.8487 3.98001e-07 44.7223C-0.000351141 45.5959 0.232179 46.4537 0.673641 47.2076C1.11811 47.9649 1.75408 48.5919 2.51764 49.0256C3.28563 49.4624 4.15409 49.6919 5.03764 49.6916H22.5196C29.4456 49.6916 34.5536 46.6916 38.0696 40.8386L46.6016 26.2656L51.1726 18.4676L64.8896 41.8926H46.6016L42.0286 49.6916L42.0296 49.6906ZM22.2346 41.8846L10.0346 41.8816L28.3226 10.6506L37.4476 26.2666L31.3376 36.7046C29.0036 40.5016 26.3516 41.8856 22.2346 41.8856V41.8846Z" fill="white"/>
</g>
</svg>
